const cueSet1 = [
  {
          "duration": 1.132074,
          "durationTicks": 30720,
          "midi": 59,
          "name": "B3",
          "ticks": 0,
          "time": 0,
          "velocity": 0.7874015748031497
        },
        {
          "duration": 1.132074,
          "durationTicks": 30720,
          "midi": 60,
          "name": "C4",
          "ticks": 30720,
          "time": 1.132074,
          "velocity": 0.7874015748031497
        },
        {
          "duration": 1.1320739999999998,
          "durationTicks": 30720,
          "midi": 62,
          "name": "D4",
          "ticks": 61440,
          "time": 2.264148,
          "velocity": 0.7874015748031497
        },
        {
          "duration": 1.1320740000000002,
          "durationTicks": 30720,
          "midi": 64,
          "name": "E4",
          "ticks": 92160,
          "time": 3.396222,
          "velocity": 0.7874015748031497
        },
        {
          "duration": 0.28301849999999984,
          "durationTicks": 7680,
          "midi": 64,
          "name": "E4",
          "ticks": 115200,
          "time": 4.2452775,
          "velocity": 0.7874015748031497
        },
        {
          "duration": 1.1320740000000002,
          "durationTicks": 30720,
          "midi": 59,
          "name": "B3",
          "ticks": 122880,
          "time": 4.528296,
          "velocity": 0.7874015748031497
        },
        {
          "duration": 1.1320739999999994,
          "durationTicks": 30720,
          "midi": 60,
          "name": "C4",
          "ticks": 153600,
          "time": 5.66037,
          "velocity": 0.7874015748031497
        },
        {
          "duration": 1.1320740000000002,
          "durationTicks": 30720,
          "midi": 62,
          "name": "D4",
          "ticks": 184320,
          "time": 6.792444,
          "velocity": 0.7874015748031497
        },
        {
          "duration": 1.1320740000000002,
          "durationTicks": 30720,
          "midi": 63,
          "name": "D#4",
          "ticks": 215040,
          "time": 7.924518,
          "velocity": 0.7874015748031497
        },
        {
          "duration": 0.28301850000000073,
          "durationTicks": 7680,
          "midi": 63,
          "name": "D#4",
          "ticks": 238080,
          "time": 8.7735735,
          "velocity": 0.7874015748031497
        },
        {
          "duration": 1.1320739999999994,
          "durationTicks": 30720,
          "midi": 71,
          "name": "B4",
          "ticks": 245760,
          "time": 9.056592,
          "velocity": 0.7874015748031497
        },
        {
          "duration": 1.1320740000000011,
          "durationTicks": 30720,
          "midi": 72,
          "name": "C5",
          "ticks": 276480,
          "time": 10.188666,
          "velocity": 0.7874015748031497
        },
        {
          "duration": 1.1320739999999994,
          "durationTicks": 30720,
          "midi": 74,
          "name": "D5",
          "ticks": 307200,
          "time": 11.32074,
          "velocity": 0.7874015748031497
        },
        {
          "duration": 1.1320739999999994,
          "durationTicks": 30720,
          "midi": 76,
          "name": "E5",
          "ticks": 337920,
          "time": 12.452814,
          "velocity": 0.7874015748031497
        },
        {
          "duration": 0.28301849999999895,
          "durationTicks": 7680,
          "midi": 76,
          "name": "E5",
          "ticks": 360960,
          "time": 13.3018695,
          "velocity": 0.7874015748031497
        },
        {
          "duration": 1.1320740000000011,
          "durationTicks": 30720,
          "midi": 71,
          "name": "B4",
          "ticks": 368640,
          "time": 13.584888,
          "velocity": 0.7874015748031497
        },
        {
          "duration": 1.1320739999999994,
          "durationTicks": 30720,
          "midi": 72,
          "name": "C5",
          "ticks": 399360,
          "time": 14.716962,
          "velocity": 0.7874015748031497
        },
        {
          "duration": 1.1320740000000011,
          "durationTicks": 30720,
          "midi": 74,
          "name": "D5",
          "ticks": 430080,
          "time": 15.849036,
          "velocity": 0.7874015748031497
        },
        {
          "duration": 1.1320739999999994,
          "durationTicks": 30720,
          "midi": 75,
          "name": "D#5",
          "ticks": 460800,
          "time": 16.98111,
          "velocity": 0.7874015748031497
        },
        {
          "duration": 0.28301850000000073,
          "durationTicks": 7680,
          "midi": 75,
          "name": "D#5",
          "ticks": 483840,
          "time": 17.8301655,
          "velocity": 0.7874015748031497
        },
        {
          "duration": 1.1320739999999994,
          "durationTicks": 30720,
          "midi": 59,
          "name": "B3",
          "ticks": 491520,
          "time": 18.113184,
          "velocity": 0.7874015748031497
        },
        {
          "duration": 1.1320739999999994,
          "durationTicks": 30720,
          "midi": 60,
          "name": "C4",
          "ticks": 522240,
          "time": 19.245258,
          "velocity": 0.7874015748031497
        },
        {
          "duration": 1.132074000000003,
          "durationTicks": 30720,
          "midi": 62,
          "name": "D4",
          "ticks": 552960,
          "time": 20.377332,
          "velocity": 0.7874015748031497
        },
        {
          "duration": 1.1320739999999994,
          "durationTicks": 30720,
          "midi": 64,
          "name": "E4",
          "ticks": 583680,
          "time": 21.509406000000002,
          "velocity": 0.7874015748031497
        },
        {
          "duration": 0.28301850000000073,
          "durationTicks": 7680,
          "midi": 64,
          "name": "E4",
          "ticks": 606720,
          "time": 22.3584615,
          "velocity": 0.7874015748031497
        },
        {
          "duration": 1.1320739999999994,
          "durationTicks": 30720,
          "midi": 59,
          "name": "B3",
          "ticks": 614400,
          "time": 22.64148,
          "velocity": 0.7874015748031497
        },
        {
          "duration": 1.1320739999999994,
          "durationTicks": 30720,
          "midi": 60,
          "name": "C4",
          "ticks": 645120,
          "time": 23.773554,
          "velocity": 0.7874015748031497
        },
        {
          "duration": 1.1320739999999994,
          "durationTicks": 30720,
          "midi": 62,
          "name": "D4",
          "ticks": 675840,
          "time": 24.905628,
          "velocity": 0.7874015748031497
        },
        {
          "duration": 1.1320739999999994,
          "durationTicks": 30720,
          "midi": 63,
          "name": "D#4",
          "ticks": 706560,
          "time": 26.037702,
          "velocity": 0.7874015748031497
        },
        {
          "duration": 0.2830184999999972,
          "durationTicks": 7680,
          "midi": 63,
          "name": "D#4",
          "ticks": 729600,
          "time": 26.8867575,
          "velocity": 0.7874015748031497
        },
        {
          "duration": 1.132074000000003,
          "durationTicks": 30720,
          "midi": 71,
          "name": "B4",
          "ticks": 737280,
          "time": 27.169776,
          "velocity": 0.7874015748031497
        },
        {
          "duration": 1.1320739999999994,
          "durationTicks": 30720,
          "midi": 72,
          "name": "C5",
          "ticks": 768000,
          "time": 28.30185,
          "velocity": 0.7874015748031497
        },
        {
          "duration": 1.1320739999999994,
          "durationTicks": 30720,
          "midi": 74,
          "name": "D5",
          "ticks": 798720,
          "time": 29.433924,
          "velocity": 0.7874015748031497
        },
        {
          "duration": 1.1320739999999994,
          "durationTicks": 30720,
          "midi": 76,
          "name": "E5",
          "ticks": 829440,
          "time": 30.565998,
          "velocity": 0.7874015748031497
        },
        {
          "duration": 0.28301850000000073,
          "durationTicks": 7680,
          "midi": 76,
          "name": "E5",
          "ticks": 852480,
          "time": 31.4150535,
          "velocity": 0.7874015748031497
        },
        {
          "duration": 1.1320739999999994,
          "durationTicks": 30720,
          "midi": 71,
          "name": "B4",
          "ticks": 860160,
          "time": 31.698072,
          "velocity": 0.7874015748031497
        },
        {
          "duration": 1.132074000000003,
          "durationTicks": 30720,
          "midi": 72,
          "name": "C5",
          "ticks": 890880,
          "time": 32.830146,
          "velocity": 0.7874015748031497
        },
        {
          "duration": 1.1320739999999958,
          "durationTicks": 30720,
          "midi": 74,
          "name": "D5",
          "ticks": 921600,
          "time": 33.96222,
          "velocity": 0.7874015748031497
        },
        {
          "duration": 1.132074000000003,
          "durationTicks": 30720,
          "midi": 75,
          "name": "D#5",
          "ticks": 952320,
          "time": 35.094294,
          "velocity": 0.7874015748031497
        },
        {
          "duration": 0.2830184999999972,
          "durationTicks": 7680,
          "midi": 75,
          "name": "D#5",
          "ticks": 975360,
          "time": 35.943349500000004,
          "velocity": 0.7874015748031497
        },
        {
          "duration": 1.132074000000003,
          "durationTicks": 30720,
          "midi": 59,
          "name": "B3",
          "ticks": 983040,
          "time": 36.226368,
          "velocity": 0.7874015748031497
        },
        {
          "duration": 1.1320739999999958,
          "durationTicks": 30720,
          "midi": 60,
          "name": "C4",
          "ticks": 1013760,
          "time": 37.358442000000004,
          "velocity": 0.7874015748031497
        },
        {
          "duration": 1.132074000000003,
          "durationTicks": 30720,
          "midi": 62,
          "name": "D4",
          "ticks": 1044480,
          "time": 38.490516,
          "velocity": 0.7874015748031497
        },
        {
          "duration": 1.1320739999999958,
          "durationTicks": 30720,
          "midi": 64,
          "name": "E4",
          "ticks": 1075200,
          "time": 39.62259,
          "velocity": 0.7874015748031497
        },
        {
          "duration": 0.2830184999999972,
          "durationTicks": 7680,
          "midi": 64,
          "name": "E4",
          "ticks": 1098240,
          "time": 40.4716455,
          "velocity": 0.7874015748031497
        },
        {
          "duration": 1.132074000000003,
          "durationTicks": 30720,
          "midi": 59,
          "name": "B3",
          "ticks": 1105920,
          "time": 40.754664,
          "velocity": 0.7874015748031497
        },
        {
          "duration": 1.132074000000003,
          "durationTicks": 30720,
          "midi": 60,
          "name": "C4",
          "ticks": 1136640,
          "time": 41.886738,
          "velocity": 0.7874015748031497
        },
        {
          "duration": 1.1320739999999958,
          "durationTicks": 30720,
          "midi": 62,
          "name": "D4",
          "ticks": 1167360,
          "time": 43.018812000000004,
          "velocity": 0.7874015748031497
        },
        {
          "duration": 1.132074000000003,
          "durationTicks": 30720,
          "midi": 63,
          "name": "D#4",
          "ticks": 1198080,
          "time": 44.150886,
          "velocity": 0.7874015748031497
        },
        {
          "duration": 0.2830185000000043,
          "durationTicks": 7680,
          "midi": 63,
          "name": "D#4",
          "ticks": 1221120,
          "time": 44.9999415,
          "velocity": 0.7874015748031497
        },
        {
          "duration": 1.1320739999999958,
          "durationTicks": 30720,
          "midi": 71,
          "name": "B4",
          "ticks": 1228800,
          "time": 45.28296,
          "velocity": 0.7874015748031497
        },
        {
          "duration": 1.132074000000003,
          "durationTicks": 30720,
          "midi": 72,
          "name": "C5",
          "ticks": 1259520,
          "time": 46.415034,
          "velocity": 0.7874015748031497
        },
        {
          "duration": 1.132074000000003,
          "durationTicks": 30720,
          "midi": 74,
          "name": "D5",
          "ticks": 1290240,
          "time": 47.547108,
          "velocity": 0.7874015748031497
        },
        {
          "duration": 1.1320739999999958,
          "durationTicks": 30720,
          "midi": 76,
          "name": "E5",
          "ticks": 1320960,
          "time": 48.679182000000004,
          "velocity": 0.7874015748031497
        },
        {
          "duration": 0.2830184999999972,
          "durationTicks": 7680,
          "midi": 76,
          "name": "E5",
          "ticks": 1344000,
          "time": 49.5282375,
          "velocity": 0.7874015748031497
        },
        {
          "duration": 1.132074000000003,
          "durationTicks": 30720,
          "midi": 71,
          "name": "B4",
          "ticks": 1351680,
          "time": 49.811256,
          "velocity": 0.7874015748031497
        },
        {
          "duration": 1.1320739999999958,
          "durationTicks": 30720,
          "midi": 72,
          "name": "C5",
          "ticks": 1382400,
          "time": 50.94333,
          "velocity": 0.7874015748031497
        },
        {
          "duration": 1.132074000000003,
          "durationTicks": 30720,
          "midi": 74,
          "name": "D5",
          "ticks": 1413120,
          "time": 52.075404,
          "velocity": 0.7874015748031497
        },
        {
          "duration": 1.1320739999999958,
          "durationTicks": 30720,
          "midi": 75,
          "name": "D#5",
          "ticks": 1443840,
          "time": 53.207478,
          "velocity": 0.7874015748031497
        },
        {
          "duration": 0.2830184999999972,
          "durationTicks": 7680,
          "midi": 75,
          "name": "D#5",
          "ticks": 1466880,
          "time": 54.0565335,
          "velocity": 0.7874015748031497
        }
];

export default cueSet1;
